<?xml version="1.0" encoding="utf-8"?>
<svg version="1.1" xmlns:xlink="http://www.w3.org/1999/xlink" width="11px" height="7px" xmlns="http://www.w3.org/2000/svg">
  <g transform="matrix(1 0 0 1 -546 -308 )">
    <path d="M 11 1.55217391304348  C 11 1.67165861513688  10.956782464847 1.77423510466989  10.8703473945409 1.85990338164251  L 5.80707196029777 6.87149758454106  C 5.72063688999173 6.95716586151369  5.61827956989247 7  5.5 7  C 5.38172043010753 7  5.27936311000827 6.95716586151369  5.19292803970223 6.87149758454106  L 0.129652605459057 1.85990338164251  C 0.0432175351530191 1.77423510466989  0 1.67165861513688  0 1.55217391304348  C 0 1.43268921095008  0.0432175351530191 1.33011272141707  0.129652605459057 1.24444444444444  L 1.26240694789082 0.128502415458937  C 1.34884201819686 0.0428341384863121  1.45119933829611 0  1.56947890818859 0  C 1.68775847808106 0  1.79011579818031 0.0428341384863121  1.87655086848635 0.128502415458937  L 5.5 3.71980676328502  L 9.12344913151365 0.128502415458937  C 9.20988420181969 0.0428341384863121  9.31224152191894 0  9.43052109181141 0  C 9.54880066170389 0  9.65115798180315 0.0428341384863121  9.73759305210918 0.128502415458937  L 10.8703473945409 1.24444444444444  C 10.956782464847 1.33011272141707  11 1.43268921095008  11 1.55217391304348  Z " fill-rule="nonzero" fill="#1965bd" stroke="none" transform="matrix(1 0 0 1 546 308 )" />
  </g>
</svg>